<svg width="18" height="18" viewBox="0 0 18 18" fill="none" xmlns="http://www.w3.org/2000/svg">
<path d="M6 0H2C0.8 0 0 0.8 0 2V6C0 7.2 0.8 8 2 8H6C7.2 8 8 7.2 8 6V2C8 0.8 7.2 0 6 0Z" fill="#8E8E93"/>
<path d="M16 0H12C10.8 0 10 0.8 10 2V6C10 7.2 10.8 8 12 8H16C17.2 8 18 7.2 18 6V2C18 0.8 17.2 0 16 0Z" fill="#8E8E93"/>
<path d="M16 10H12C10.8 10 10 10.8 10 12V16C10 17.2 10.8 18 12 18H16C17.2 18 18 17.2 18 16V12C18 10.8 17.2 10 16 10Z" fill="#8E8E93"/>
<path d="M6 10H2C0.8 10 0 10.8 0 12V16C0 17.2 0.8 18 2 18H6C7.2 18 8 17.2 8 16V12C8 10.8 7.2 10 6 10Z" fill="#8E8E93"/>
</svg>
