<svg width="20" height="18" viewBox="0 0 20 18" fill="none" xmlns="http://www.w3.org/2000/svg">
<g opacity="0.7">
<path d="M2.49996 0H0.83332C0.333328 0 0 0.360003 0 0.900008V2.70002C0 3.24003 0.333328 3.60003 0.83332 3.60003H2.49996C2.99995 3.60003 3.33328 3.24003 3.33328 2.70002V0.900008C3.33328 0.360003 2.99995 0 2.49996 0Z" fill="#F05757"/>
<path d="M2.49996 7.20032H0.83332C0.333328 7.20032 0 7.56032 0 8.10033V9.90034C0 10.4403 0.333328 10.8003 0.83332 10.8003H2.49996C2.99995 10.8003 3.33328 10.4403 3.33328 9.90034V8.10033C3.33328 7.56032 2.99995 7.20032 2.49996 7.20032Z" fill="#F05757"/>
<path d="M2.49996 14.4H0.83332C0.333328 14.4 0 14.76 0 15.3V17.1C0 17.6401 0.333328 18.0001 0.83332 18.0001H2.49996C2.99995 18.0001 3.33328 17.6401 3.33328 17.1V15.3C3.33328 14.76 2.99995 14.4 2.49996 14.4Z" fill="#F05757"/>
<path d="M19.1666 0H7.50007C7.00008 0 6.66675 0.360003 6.66675 0.900008V2.70002C6.66675 3.24003 7.00008 3.60003 7.50007 3.60003H19.1666C19.6665 3.60003 19.9999 3.24003 19.9999 2.70002V0.900008C19.9999 0.360003 19.6665 0 19.1666 0Z" fill="#F05757"/>
<path d="M19.1668 7.20032H7.50031C7.00032 7.20032 6.66699 7.56032 6.66699 8.10033V9.90034C6.66699 10.4403 7.00032 10.8003 7.50031 10.8003H19.1668C19.6668 10.8003 20.0001 10.4403 20.0001 9.90034V8.10033C20.0001 7.56032 19.6668 7.20032 19.1668 7.20032Z" fill="#F05757"/>
<path d="M19.1668 14.3999H7.50031C7.00032 14.3999 6.66699 14.7599 6.66699 15.2999V17.0999C6.66699 17.6399 7.00032 17.9999 7.50031 17.9999H19.1668C19.6668 17.9999 20.0001 17.6399 20.0001 17.0999V15.2999C20.0001 14.7599 19.6668 14.3999 19.1668 14.3999Z" fill="#F05757"/>
</g>
</svg>
