<svg width="18" height="18" viewBox="0 0 18 18" fill="none" xmlns="http://www.w3.org/2000/svg">
<path d="M8.13589 1.48371C8.52162 0.821443 9.47838 0.821443 9.86411 1.48371L12.011 5.16974C12.1523 5.41234 12.3891 5.58437 12.6635 5.64379L16.8326 6.54659C17.5816 6.70879 17.8773 7.61872 17.3666 8.19023L14.5244 11.3711C14.3374 11.5805 14.2469 11.8588 14.2752 12.1381L14.7049 16.3821C14.7821 17.1446 14.0081 17.707 13.3067 17.398L9.40325 15.6778C9.14634 15.5646 8.85366 15.5646 8.59675 15.6778L4.69326 17.398C3.99192 17.707 3.21789 17.1446 3.2951 16.3821L3.7248 12.1381C3.75308 11.8588 3.66264 11.5805 3.47558 11.3711L0.633386 8.19023C0.122732 7.61872 0.418384 6.70879 1.16744 6.54659L5.3365 5.64379C5.61089 5.58437 5.84767 5.41234 5.98897 5.16974L8.13589 1.48371Z" fill="#F05757"/>
</svg>
