<svg width="50" height="50" viewBox="0 0 50 50" fill="none" xmlns="http://www.w3.org/2000/svg">
<rect x="0.5" y="0.5" width="49" height="49" rx="7.5" stroke="#404040"/>
<path fill-rule="evenodd" clip-rule="evenodd" d="M20.875 14H29.125C32.9214 14 36 17.0786 36 20.875V29.125C36 32.9214 32.9214 36 29.125 36H20.875C17.0786 36 14 32.9214 14 29.125V20.875C14 17.0786 17.0786 14 20.875 14ZM29.125 33.9375C31.7787 33.9375 33.9375 31.7787 33.9375 29.125V20.875C33.9375 18.2213 31.7787 16.0625 29.125 16.0625H20.875C18.2213 16.0625 16.0625 18.2213 16.0625 20.875V29.125C16.0625 31.7787 18.2213 33.9375 20.875 33.9375H29.125Z" fill="white"/>
<path fill-rule="evenodd" clip-rule="evenodd" d="M19.5 25C19.5 21.9626 21.9626 19.5 25 19.5C28.0374 19.5 30.5 21.9626 30.5 25C30.5 28.0374 28.0374 30.5 25 30.5C21.9626 30.5 19.5 28.0374 19.5 25ZM21.5625 25C21.5625 26.8948 23.1052 28.4375 25 28.4375C26.8948 28.4375 28.4375 26.8948 28.4375 25C28.4375 23.1039 26.8948 21.5625 25 21.5625C23.1052 21.5625 21.5625 23.1039 21.5625 25Z" fill="white"/>
<circle cx="30.9126" cy="19.0876" r="0.732875" fill="white"/>
</svg>
