<svg width="50" height="50" viewBox="0 0 50 50" fill="none" xmlns="http://www.w3.org/2000/svg">
<rect x="0.5" y="0.5" width="49" height="49" rx="7.5" stroke="#404040"/>
<path d="M36 18.1161C35.1819 18.475 34.3101 18.7129 33.4013 18.8284C34.3363 18.2701 35.0499 17.3929 35.3854 16.3355C34.5136 16.8553 33.5511 17.2224 32.5254 17.4273C31.6976 16.5459 30.5179 16 29.2309 16C26.7339 16 24.7236 18.0267 24.7236 20.5114C24.7236 20.8689 24.7539 21.2126 24.8281 21.5399C21.0785 21.357 17.7606 19.5599 15.5317 16.8223C15.1426 17.4974 14.9144 18.2701 14.9144 19.102C14.9144 20.664 15.7187 22.0486 16.9177 22.8502C16.1931 22.8365 15.4822 22.6261 14.88 22.2948C14.88 22.3085 14.88 22.3264 14.88 22.3443C14.88 24.536 16.4434 26.3565 18.4935 26.7759C18.1264 26.8763 17.7263 26.9244 17.311 26.9244C17.0223 26.9244 16.7307 26.9079 16.4571 26.8474C17.0415 28.6335 18.6997 29.9466 20.6715 29.9893C19.137 31.1896 17.1886 31.9129 15.0794 31.9129C14.7095 31.9129 14.3548 31.8964 14 31.851C15.9979 33.1394 18.3656 33.875 20.919 33.875C29.2185 33.875 33.756 27 33.756 21.0408C33.756 20.8414 33.7491 20.6489 33.7395 20.4577C34.6346 19.8225 35.3867 19.0291 36 18.1161Z" fill="white"/>
</svg>
