<svg width="50" height="50" viewBox="0 0 50 50" fill="none" xmlns="http://www.w3.org/2000/svg">
<g clip-path="url(#clip0_1456_295)">
<rect x="0.5" y="0.5" width="49" height="49" rx="7.5" stroke="#404040"/>
<path d="M33.9474 20.7388C34.0757 20.3126 33.9474 20 33.3406 20H31.3303C30.8188 20 30.5851 20.2704 30.4567 20.5674C30.4567 20.5674 29.4347 23.0598 27.9863 24.6759C27.5188 25.1462 27.3052 25.2947 27.0504 25.2947C26.923 25.2947 26.7378 25.1462 26.7378 24.7199V20.7388C26.7378 20.2273 26.5902 20 26.164 20H23.0052C22.6862 20 22.4937 20.2365 22.4937 20.462C22.4937 20.946 23.2178 21.0578 23.2921 22.4218V25.3808C23.2921 26.0289 23.1757 26.1472 22.919 26.1472C22.2379 26.1472 20.5806 23.6456 19.597 20.7819C19.4054 20.2255 19.212 20.0009 18.6987 20.0009H16.6893C16.1146 20.0009 16 20.2713 16 20.5683C16 21.1018 16.6811 23.7418 19.1726 27.2334C20.8336 29.6177 23.172 30.9102 25.3023 30.9102C26.5792 30.9102 26.7369 30.6233 26.7369 30.1283V28.3261C26.7369 27.7523 26.8588 27.6368 27.2631 27.6368C27.5601 27.6368 28.0716 27.7871 29.2642 28.9357C30.6263 30.2978 30.8518 30.9093 31.6172 30.9093H33.6266C34.2004 30.9093 34.4873 30.6223 34.3223 30.0558C34.1417 29.4921 33.4909 28.6717 32.6274 27.7009C32.1581 27.1473 31.4568 26.5514 31.2432 26.2535C30.9453 25.8694 31.0315 25.6998 31.2432 25.3588C31.2442 25.3598 33.6926 21.9113 33.9474 20.7388Z" fill="white"/>
</g>
<defs>
<clipPath id="clip0_1456_295">
<rect width="50" height="50" fill="white"/>
</clipPath>
</defs>
</svg>
